<svg width="212" height="436" viewBox="0 0 212 436" fill="none" xmlns="http://www.w3.org/2000/svg">
<path d="M186.492 0H32.7826C18.8274 0 7.50147 11.3259 7.50147 25.2811V178.99C7.50147 192.946 18.8274 204.271 32.7826 204.271H106.351C105.39 244.519 96.0359 276.727 78.3392 300.946C64.384 320.059 43.2495 335.885 14.9847 348.374C1.99018 354.087 -3.62223 369.458 2.44524 382.302L20.6476 420.729C26.5129 433.066 41.0242 438.476 53.5637 433.066C87.0359 418.605 115.301 400.301 138.357 378.054C166.47 350.902 185.733 320.261 196.149 286.081C206.566 251.901 211.773 205.283 211.773 146.125V25.2811C211.773 11.3264 200.446 0 186.492 0Z" fill="#050C33"/>
</svg>
